<svg xmlns="http://www.w3.org/2000/svg" viewBox="0 0 36 45" x="0px" y="0px"><title>Монтажная область 45</title><path d="M35.84,22.91,24.91,6.33a1,1,0,0,0-1.58,0l-8.4,12.73-5.3-5.3A1,1,0,0,0,9,13.49a.92.92,0,0,0-.68.3l-8,8.57a.94.94,0,1,0,1.38,1.29l3.12-3.33L6.2,21.6a1,1,0,0,0,1.26,0L9,20.26l1.5,1.34a1,1,0,0,0,.63.24.94.94,0,0,0,.63-.24l1.62-1.44.53.52L8.64,28.59a1,1,0,0,0,.27,1.32,1,1,0,0,0,.52.15,1,1,0,0,0,.8-.42l9.42-14.29,1.71,1.51a.93.93,0,0,0,1.25,0l1.51-1.33,1.5,1.33a.94.94,0,0,0,.63.24,1,1,0,0,0,.63-.24l1.7-1.51L34.26,24a.95.95,0,0,0,1.58-1ZM11.09,19.62l-1.5-1.33a1,1,0,0,0-1.26,0l-1.5,1.33-.78-.69L9,15.8l3,3Zm15.16-4.73-1.51-1.34a.93.93,0,0,0-1.25,0L22,14.89l-1.27-1.14,3.41-5.17,3.41,5.17Z"/><text x="0" y="51" fill="#000000" font-size="5px" font-weight="bold" font-family="'Helvetica Neue', Helvetica, Arial-Unicode, Arial, Sans-serif">Created by Vadim Solomakhin</text><text x="0" y="56" fill="#000000" font-size="5px" font-weight="bold" font-family="'Helvetica Neue', Helvetica, Arial-Unicode, Arial, Sans-serif">from the Noun Project</text></svg>