<svg xmlns="http://www.w3.org/2000/svg" data-name="Layer 2" viewBox="0 0 100 125" x="0px" y="0px"><title>WEATHER(OUTLINE)</title><path d="M80.54,35.36A20.76,20.76,0,0,0,45.28,23.44a17.81,17.81,0,0,0-17.65,8.39,13.59,13.59,0,0,0-3.35-.42,13.78,13.78,0,0,0,0,27.56H77.5a12,12,0,0,0,3-23.61ZM77.5,55H24.28A9.78,9.78,0,1,1,27.86,36.1a2,2,0,0,0,2.53-1,13.75,13.75,0,0,1,12.46-7.84,14,14,0,0,1,2.75.28,2,2,0,0,0,1.88-.62A16.77,16.77,0,0,1,76.7,37.16,2,2,0,0,0,78.46,39,8,8,0,0,1,77.5,55Z"/><path d="M38,66.86a5.33,5.33,0,1,0-5.33,5.33A5.34,5.34,0,0,0,38,66.86Zm-5.33,1.33A1.33,1.33,0,1,1,34,66.86,1.33,1.33,0,0,1,32.63,68.19Z"/><path d="M56.4,66.86a5.33,5.33,0,1,0-5.33,5.33A5.34,5.34,0,0,0,56.4,66.86Zm-5.33,1.33a1.33,1.33,0,1,1,1.33-1.33A1.33,1.33,0,0,1,51.07,68.19Z"/><path d="M74.85,66.86a5.33,5.33,0,1,0-5.33,5.33A5.34,5.34,0,0,0,74.85,66.86Zm-5.33,1.33a1.33,1.33,0,1,1,1.33-1.33A1.33,1.33,0,0,1,69.52,68.19Z"/><path d="M40.48,72a5.33,5.33,0,1,0,5.33,5.33A5.34,5.34,0,0,0,40.48,72Zm0,6.66a1.33,1.33,0,1,1,1.33-1.33A1.33,1.33,0,0,1,40.48,78.64Z"/><path d="M58.93,72a5.33,5.33,0,1,0,5.33,5.33A5.34,5.34,0,0,0,58.93,72Zm0,6.66a1.33,1.33,0,1,1,1.33-1.33A1.33,1.33,0,0,1,58.93,78.64Z"/><path d="M77.37,72a5.33,5.33,0,1,0,5.33,5.33A5.34,5.34,0,0,0,77.37,72Zm0,6.66a1.33,1.33,0,1,1,1.33-1.33A1.33,1.33,0,0,1,77.37,78.64Z"/><text x="0" y="115" fill="#000000" font-size="5px" font-weight="bold" font-family="'Helvetica Neue', Helvetica, Arial-Unicode, Arial, Sans-serif">Created by Alwin Aulia</text><text x="0" y="120" fill="#000000" font-size="5px" font-weight="bold" font-family="'Helvetica Neue', Helvetica, Arial-Unicode, Arial, Sans-serif">from the Noun Project</text></svg>