<svg width="237" height="27" viewBox="0 0 237 27" fill="none" xmlns="http://www.w3.org/2000/svg">
<path d="M46.2451 16.5327H43.1053L40.0142 5.79533H43.0239L44.7972 14.3364L46.7332 5.79533H49.2711L51.2396 14.3202L53.0129 5.79533H55.9088L52.8014 16.5327H49.7592L48.4902 11.3267L48.0021 8.70744H47.9696L47.4978 11.3267L46.2451 16.5327ZM66.9564 5.79533V16.5327H64.1582V12.2052H60.0584V16.5327H57.2602V5.79533H60.0584V10.0415H64.1582V5.79533H66.9564ZM72.1329 16.5327H69.3347V5.79533H72.1329V16.5327ZM78.7113 5.63265C79.7308 5.63265 80.5985 5.78449 81.3143 6.08817C82.041 6.39186 82.7134 6.88534 83.3317 7.56863L81.7536 9.39073C81.3957 8.84844 80.9727 8.45257 80.4846 8.20311C80.0074 7.94281 79.4326 7.81266 78.7601 7.81266C78.1962 7.81266 77.7623 7.91027 77.4586 8.1055C77.155 8.30072 77.0031 8.56102 77.0031 8.8864C77.0031 9.15754 77.1604 9.37988 77.4749 9.55342C77.8003 9.71611 78.348 9.86795 79.1181 10.0089C80.6039 10.2801 81.6614 10.676 82.2905 11.1966C82.9304 11.7172 83.2503 12.4493 83.2503 13.3928C83.2503 14.0761 83.0551 14.6672 82.6646 15.1661C82.2742 15.665 81.7319 16.0447 81.0378 16.305C80.3545 16.5653 79.579 16.6954 78.7113 16.6954C77.4966 16.6954 76.5096 16.549 75.7504 16.2561C74.9912 15.9525 74.335 15.4915 73.7819 14.8733L75.2135 12.9211C75.6365 13.5067 76.1138 13.9189 76.6452 14.1575C77.1766 14.3961 77.8166 14.5154 78.5649 14.5154C79.1614 14.5154 79.6061 14.434 79.899 14.2714C80.2026 14.0978 80.3545 13.8538 80.3545 13.5393C80.3545 13.2898 80.1918 13.0892 79.8664 12.9373C79.5519 12.7746 79.0204 12.6228 78.2721 12.4818C77.3502 12.2974 76.5855 12.0805 75.9782 11.831C75.3817 11.5707 74.9153 11.2237 74.5791 10.7898C74.2537 10.356 74.091 9.80287 74.091 9.13043C74.091 8.45799 74.27 7.85604 74.6279 7.3246C74.9966 6.79315 75.5281 6.38101 76.2222 6.08817C76.9272 5.78449 77.7569 5.63265 78.7113 5.63265ZM93.8223 7.95908H90.3246V16.5327H87.5263V7.95908H84.0123V5.79533H93.8223V7.95908ZM103.605 14.369V16.5327H95.4219V5.79533H98.2201V14.369H103.605ZM108.007 16.5327H105.209V5.79533H108.007V16.5327ZM120.068 16.5327H116.96L113.625 10.7248L112.812 9.09789H112.796L112.861 11.1152V16.5327H110.388V5.79533H113.495L116.83 11.6033L117.644 13.2302H117.66L117.595 11.2128V5.79533H120.068V16.5327ZM132.078 10.7248V16.5327H130.125L130.044 15.2638C129.426 16.2182 128.401 16.6954 126.969 16.6954C125.993 16.6954 125.125 16.4839 124.366 16.0609C123.618 15.6271 123.032 14.998 122.609 14.1737C122.186 13.3386 121.975 12.3408 121.975 11.1803C121.975 10.0306 122.192 9.04366 122.625 8.21938C123.059 7.38425 123.677 6.74435 124.48 6.29967C125.283 5.85499 126.232 5.63265 127.327 5.63265C128.553 5.63265 129.54 5.84956 130.288 6.2834C131.036 6.71723 131.627 7.41679 132.061 8.38207L129.475 9.407C129.344 8.87555 129.1 8.47968 128.742 8.21938C128.385 7.95908 127.94 7.82893 127.408 7.82893C126.584 7.82893 125.95 8.11092 125.505 8.67491C125.071 9.23889 124.854 10.0686 124.854 11.164C124.854 13.42 125.733 14.5479 127.49 14.5479C128.151 14.5479 128.683 14.3961 129.084 14.0924C129.496 13.7887 129.702 13.3495 129.702 12.7746V12.6119H127.034V10.7248H132.078ZM151.288 16.5327H148.815V11.6033L148.896 8.30072H148.863L146.212 16.5327H143.95L141.299 8.30072H141.266L141.347 11.6033V16.5327H138.858V5.79533H142.844L144.536 11.2616L145.138 13.5393H145.17L145.789 11.2779L147.464 5.79533H151.288V16.5327ZM158.481 5.63265C159.565 5.63265 160.498 5.85499 161.279 6.29967C162.071 6.7335 162.678 7.36798 163.101 8.20311C163.524 9.02739 163.736 10.0144 163.736 11.164C163.736 12.3137 163.524 13.3061 163.101 14.1412C162.678 14.9655 162.071 15.6 161.279 16.0447C160.498 16.4785 159.565 16.6954 158.481 16.6954C157.396 16.6954 156.458 16.4785 155.666 16.0447C154.875 15.6 154.267 14.9655 153.844 14.1412C153.421 13.3061 153.21 12.3137 153.21 11.164C153.21 10.0144 153.421 9.02739 153.844 8.20311C154.267 7.36798 154.875 6.7335 155.666 6.29967C156.458 5.85499 157.396 5.63265 158.481 5.63265ZM158.481 7.82893C157.7 7.82893 157.103 8.11092 156.691 8.67491C156.279 9.23889 156.073 10.0686 156.073 11.164C156.073 12.2595 156.279 13.0892 156.691 13.6531C157.103 14.2171 157.7 14.4991 158.481 14.4991C159.262 14.4991 159.853 14.2171 160.254 13.6531C160.666 13.0892 160.872 12.2595 160.872 11.164C160.872 10.0686 160.666 9.23889 160.254 8.67491C159.853 8.11092 159.262 7.82893 158.481 7.82893ZM175.064 12.1564C175.064 13.664 174.662 14.7974 173.86 15.5566C173.057 16.3158 171.859 16.6954 170.264 16.6954C168.681 16.6954 167.482 16.3158 166.669 15.5566C165.866 14.7974 165.465 13.664 165.465 12.1564V5.79533H168.28V12.2052C168.28 12.9753 168.442 13.5501 168.768 13.9297C169.093 14.3093 169.592 14.4991 170.264 14.4991C171.609 14.4991 172.282 13.7345 172.282 12.2052V5.79533H175.064V12.1564ZM186.938 16.5327H183.831L180.496 10.7248L179.682 9.09789H179.666L179.731 11.1152V16.5327H177.258V5.79533H180.366L183.701 11.6033L184.514 13.2302H184.53L184.465 11.2128V5.79533H186.938V16.5327ZM198.346 7.95908H194.848V16.5327H192.05V7.95908H188.536V5.79533H198.346V7.95908ZM204.649 14.1087H200.94L200.192 16.5327H197.377L201.152 5.79533H204.503L208.261 16.5327H205.381L204.649 14.1087ZM204.064 12.2052L203.283 9.63476L202.811 7.94281H202.778L202.339 9.61849L201.526 12.2052H204.064ZM212.308 16.5327H209.51V5.79533H212.308V16.5327ZM224.369 16.5327H221.262L217.927 10.7248L217.113 9.09789H217.097L217.162 11.1152V16.5327H214.689V5.79533H217.796L221.131 11.6033L221.945 13.2302H221.961L221.896 11.2128V5.79533H224.369V16.5327ZM230.945 5.63265C231.964 5.63265 232.832 5.78449 233.548 6.08817C234.275 6.39186 234.947 6.88534 235.565 7.56863L233.987 9.39073C233.629 8.84844 233.206 8.45257 232.718 8.20311C232.241 7.94281 231.666 7.81266 230.994 7.81266C230.43 7.81266 229.996 7.91027 229.692 8.1055C229.389 8.30072 229.237 8.56102 229.237 8.8864C229.237 9.15754 229.394 9.37988 229.709 9.55342C230.034 9.71611 230.582 9.86795 231.352 10.0089C232.838 10.2801 233.895 10.676 234.524 11.1966C235.164 11.7172 235.484 12.4493 235.484 13.3928C235.484 14.0761 235.289 14.6672 234.898 15.1661C234.508 15.665 233.966 16.0447 233.271 16.305C232.588 16.5653 231.813 16.6954 230.945 16.6954C229.73 16.6954 228.743 16.549 227.984 16.2561C227.225 15.9525 226.569 15.4915 226.016 14.8733L227.447 12.9211C227.87 13.5067 228.347 13.9189 228.879 14.1575C229.41 14.3961 230.05 14.5154 230.799 14.5154C231.395 14.5154 231.84 14.434 232.133 14.2714C232.436 14.0978 232.588 13.8538 232.588 13.5393C232.588 13.2898 232.425 13.0892 232.1 12.9373C231.786 12.7746 231.254 12.6228 230.506 12.4818C229.584 12.2974 228.819 12.0805 228.212 11.831C227.615 11.5707 227.149 11.2237 226.813 10.7898C226.487 10.356 226.325 9.80287 226.325 9.13043C226.325 8.45799 226.504 7.85604 226.861 7.3246C227.23 6.79315 227.762 6.38101 228.456 6.08817C229.161 5.78449 229.991 5.63265 230.945 5.63265Z" fill="white"/>
<path d="M39.6745 19.1462L27.5852 0.934012C27.4818 0.801712 27.3493 0.69464 27.1979 0.620983C27.0464 0.547326 26.88 0.509033 26.7114 0.509033C26.5428 0.509033 26.3764 0.547326 26.2249 0.620983C26.0735 0.69464 25.941 0.801712 25.8376 0.934012L16.5466 14.9172L10.6845 9.09542C10.4946 8.91813 10.2479 8.8131 9.98766 8.79884C9.84611 8.7988 9.70611 8.82808 9.5766 8.88483C9.44709 8.94157 9.33093 9.02452 9.23553 9.12838L0.386989 18.542C0.293302 18.6415 0.220273 18.7584 0.172072 18.886C0.12387 19.0135 0.10144 19.1493 0.106062 19.2855C0.110684 19.4216 0.142267 19.5556 0.199009 19.6796C0.25575 19.8037 0.336539 19.9154 0.436762 20.0084C0.536986 20.1015 0.65468 20.174 0.783127 20.2219C0.911573 20.2697 1.04826 20.292 1.18537 20.2874C1.32249 20.2828 1.45735 20.2515 1.58226 20.1951C1.70717 20.1388 1.81968 20.0585 1.91336 19.959L5.3643 16.3012L6.89067 17.7072C7.08772 17.866 7.33375 17.9526 7.58749 17.9526C7.84123 17.9526 8.08726 17.866 8.28432 17.7072L9.98766 16.2353L11.6468 17.7072C11.8413 17.8725 12.0876 17.9657 12.3436 17.9708C12.6007 17.9715 12.8489 17.8776 13.0404 17.7072L14.8322 16.1254L15.4185 16.6966L9.58948 25.3853C9.44836 25.6205 9.40076 25.8995 9.45601 26.1677C9.51125 26.4359 9.66535 26.674 9.88811 26.8352C10.0609 26.9416 10.2599 26.9986 10.4633 27C10.6369 26.9975 10.8074 26.9544 10.9612 26.8742C11.1149 26.7941 11.2474 26.6791 11.3481 26.5387L21.7673 10.8419L23.6587 12.5006C23.8479 12.6712 24.0944 12.7657 24.35 12.7657C24.6055 12.7657 24.852 12.6712 25.0412 12.5006L26.7114 11.0397L28.3705 12.5006C28.562 12.671 28.8102 12.7649 29.0673 12.7642C29.3233 12.7591 29.5696 12.6659 29.7642 12.5006L31.6445 10.8419L37.9269 20.3435C38.0935 20.5237 38.3186 20.6401 38.5628 20.6723C38.807 20.7045 39.0548 20.6504 39.263 20.5196C39.4712 20.3887 39.6264 20.1894 39.7016 19.9564C39.7769 19.7235 39.7673 19.4717 39.6745 19.245V19.1462ZM12.2993 15.5323L10.6402 14.0714C10.4432 13.9126 10.1972 13.826 9.94342 13.826C9.68968 13.826 9.44365 13.9126 9.24659 14.0714L7.58749 15.5323L6.72476 14.7744L9.98766 11.3362L13.3059 14.6316L12.2993 15.5323ZM29.0673 10.3367L27.3972 8.86475C27.2079 8.69417 26.9615 8.59967 26.7059 8.59967C26.4503 8.59967 26.2039 8.69417 26.0146 8.86475L24.3665 10.3367L22.9618 9.08444L26.7335 3.4055L30.5052 9.08444L29.0673 10.3367Z" fill="white"/>
</svg>
