<svg width="345" height="40" viewBox="0 0 345 40" fill="none" xmlns="http://www.w3.org/2000/svg">
<path d="M67.313 24H62.7394L58.237 8.35982H62.621L65.204 20.8009L68.0239 8.35982H71.7207L74.5881 20.7772L77.1711 8.35982H81.3892L76.863 24H72.4316L70.5832 16.4169L69.8723 12.6016H69.8249L69.1377 16.4169L67.313 24ZM97.4813 8.35982V24H93.4054V17.6965H87.4336V24H83.3577V8.35982H87.4336V14.5448H93.4054V8.35982H97.4813ZM105.021 24H100.946V8.35982H105.021V24ZM114.604 8.12284C116.089 8.12284 117.353 8.34402 118.395 8.78637C119.454 9.22871 120.433 9.94753 121.334 10.9428L119.035 13.5969C118.514 12.807 117.898 12.2304 117.187 11.867C116.492 11.4879 115.654 11.2983 114.675 11.2983C113.853 11.2983 113.221 11.4405 112.779 11.7248C112.337 12.0092 112.115 12.3883 112.115 12.8623C112.115 13.2572 112.345 13.5811 112.803 13.8339C113.277 14.0709 114.074 14.292 115.196 14.4974C117.36 14.8924 118.901 15.469 119.817 16.2273C120.749 16.9856 121.215 18.052 121.215 19.4264C121.215 20.4217 120.931 21.2827 120.362 22.0094C119.793 22.7361 119.003 23.2891 117.992 23.6682C116.997 24.0474 115.868 24.237 114.604 24.237C112.834 24.237 111.397 24.0237 110.291 23.5971C109.185 23.1548 108.229 22.4834 107.423 21.5829L109.509 18.7392C110.125 19.5923 110.82 20.1926 111.594 20.5402C112.368 20.8878 113.3 21.0615 114.39 21.0615C115.259 21.0615 115.907 20.9431 116.334 20.7061C116.776 20.4533 116.997 20.0979 116.997 19.6397C116.997 19.2763 116.76 18.9841 116.286 18.7629C115.828 18.5259 115.054 18.3048 113.964 18.0994C112.621 17.8308 111.507 17.5149 110.623 17.1515C109.754 16.7723 109.074 16.2668 108.585 15.6349C108.111 15.0029 107.874 14.1972 107.874 13.2178C107.874 12.2383 108.134 11.3615 108.656 10.5874C109.193 9.81325 109.967 9.21292 110.978 8.78637C112.005 8.34402 113.213 8.12284 114.604 8.12284ZM136.615 11.5115H131.52V24H127.444V11.5115H122.325V8.35982H136.615V11.5115ZM150.864 20.8483V24H138.944V8.35982H143.02V20.8483H150.864ZM157.276 24H153.2V8.35982H157.276V24ZM174.844 24H170.318L165.46 15.5401L164.275 13.1704H164.251L164.346 16.1088V24H160.744V8.35982H165.27L170.128 16.8197L171.313 19.1895H171.337L171.242 16.251V8.35982H174.844V24ZM192.337 15.5401V24H189.494L189.375 22.1516C188.475 23.5419 186.982 24.237 184.897 24.237C183.475 24.237 182.211 23.9289 181.105 23.3128C180.015 22.6809 179.162 21.7646 178.546 20.5639C177.93 19.3474 177.621 17.894 177.621 16.2036C177.621 14.529 177.937 13.0914 178.569 11.8907C179.201 10.6742 180.102 9.74216 181.271 9.09443C182.44 8.44671 183.822 8.12284 185.418 8.12284C187.203 8.12284 188.641 8.43881 189.731 9.07073C190.821 9.70266 191.682 10.7216 192.314 12.1277L188.546 13.6206C188.356 12.8465 188.001 12.2699 187.48 11.8907C186.958 11.5115 186.31 11.322 185.536 11.322C184.336 11.322 183.412 11.7327 182.764 12.5542C182.132 13.3757 181.816 14.5843 181.816 16.1799C181.816 19.4659 183.096 21.1089 185.655 21.1089C186.619 21.1089 187.393 20.8878 187.977 20.4454C188.578 20.0031 188.878 19.3632 188.878 18.5259V18.289H184.991V15.5401H192.337ZM220.319 24H216.717V16.8197L216.835 12.0092H216.788L212.925 24H209.631L205.769 12.0092H205.721L205.84 16.8197V24H202.214V8.35982H208.02L210.485 16.3221L211.361 19.6397H211.409L212.309 16.3458L214.75 8.35982H220.319V24ZM230.797 8.12284C232.377 8.12284 233.735 8.44671 234.873 9.09443C236.026 9.72636 236.911 10.6505 237.527 11.867C238.143 13.0677 238.451 14.5053 238.451 16.1799C238.451 17.8545 238.143 19.3 237.527 20.5165C236.911 21.7172 236.026 22.6414 234.873 23.2891C233.735 23.921 232.377 24.237 230.797 24.237C229.217 24.237 227.85 23.921 226.697 23.2891C225.544 22.6414 224.659 21.7172 224.043 20.5165C223.427 19.3 223.119 17.8545 223.119 16.1799C223.119 14.5053 223.427 13.0677 224.043 11.867C224.659 10.6505 225.544 9.72636 226.697 9.09443C227.85 8.44671 229.217 8.12284 230.797 8.12284ZM230.797 11.322C229.659 11.322 228.79 11.7327 228.19 12.5542C227.59 13.3757 227.29 14.5843 227.29 16.1799C227.29 17.7755 227.59 18.9841 228.19 19.8056C228.79 20.6271 229.659 21.0378 230.797 21.0378C231.934 21.0378 232.795 20.6271 233.38 19.8056C233.98 18.9841 234.28 17.7755 234.28 16.1799C234.28 14.5843 233.98 13.3757 233.38 12.5542C232.795 11.7327 231.934 11.322 230.797 11.322ZM254.952 17.6254C254.952 19.8214 254.367 21.4723 253.198 22.5782C252.029 23.684 250.283 24.237 247.961 24.237C245.654 24.237 243.909 23.684 242.724 22.5782C241.555 21.4723 240.97 19.8214 240.97 17.6254V8.35982H245.07V17.6965C245.07 18.8182 245.307 19.6555 245.781 20.2084C246.255 20.7614 246.981 21.0378 247.961 21.0378C249.92 21.0378 250.899 19.9241 250.899 17.6965V8.35982H254.952V17.6254ZM272.248 24H267.722L262.864 15.5401L261.679 13.1704H261.655L261.75 16.1088V24H258.148V8.35982H262.674L267.532 16.8197L268.717 19.1895H268.741L268.646 16.251V8.35982H272.248V24ZM288.865 11.5115H283.77V24H279.694V11.5115H274.575V8.35982H288.865V11.5115ZM298.046 20.4691H292.643L291.553 24H287.454L292.951 8.35982H297.833L303.307 24H299.113L298.046 20.4691ZM297.193 17.6965L296.056 13.9524L295.368 11.4879H295.321L294.681 13.9287L293.496 17.6965H297.193ZM309.202 24H305.126V8.35982H309.202V24ZM326.77 24H322.244L317.386 15.5401L316.201 13.1704H316.177L316.272 16.1088V24H312.67V8.35982H317.196L322.054 16.8197L323.239 19.1895H323.263L323.168 16.251V8.35982H326.77V24ZM336.349 8.12284C337.834 8.12284 339.098 8.34402 340.14 8.78637C341.199 9.22871 342.178 9.94753 343.079 10.9428L340.78 13.5969C340.259 12.807 339.643 12.2304 338.932 11.867C338.237 11.4879 337.399 11.2983 336.42 11.2983C335.598 11.2983 334.966 11.4405 334.524 11.7248C334.082 12.0092 333.861 12.3883 333.861 12.8623C333.861 13.2572 334.09 13.5811 334.548 13.8339C335.022 14.0709 335.82 14.292 336.941 14.4974C339.106 14.8924 340.646 15.469 341.562 16.2273C342.494 16.9856 342.96 18.052 342.96 19.4264C342.96 20.4217 342.676 21.2827 342.107 22.0094C341.538 22.7361 340.749 23.2891 339.738 23.6682C338.742 24.0474 337.613 24.237 336.349 24.237C334.579 24.237 333.142 24.0237 332.036 23.5971C330.93 23.1548 329.974 22.4834 329.169 21.5829L331.254 18.7392C331.87 19.5923 332.565 20.1926 333.339 20.5402C334.113 20.8878 335.045 21.0615 336.136 21.0615C337.004 21.0615 337.652 20.9431 338.079 20.7061C338.521 20.4533 338.742 20.0979 338.742 19.6397C338.742 19.2763 338.505 18.9841 338.031 18.7629C337.573 18.5259 336.799 18.3048 335.709 18.0994C334.366 17.8308 333.252 17.5149 332.368 17.1515C331.499 16.7723 330.819 16.2668 330.33 15.6349C329.856 15.0029 329.619 14.1972 329.619 13.2178C329.619 12.2383 329.879 11.3615 330.401 10.5874C330.938 9.81325 331.712 9.21292 332.723 8.78637C333.75 8.34402 334.959 8.12284 336.349 8.12284Z" fill="black"/>
<path d="M57.7422 27.656L40.1328 1.128C39.9822 0.935291 39.7892 0.779329 39.5686 0.672039C39.348 0.564749 39.1056 0.508972 38.86 0.508972C38.6144 0.508972 38.372 0.564749 38.1514 0.672039C37.9308 0.779329 37.7378 0.935291 37.5872 1.128L24.0539 21.496L15.515 13.016C15.2385 12.7578 14.879 12.6048 14.5 12.584C14.2938 12.5839 14.0899 12.6266 13.9012 12.7092C13.7126 12.7919 13.5434 12.9127 13.4044 13.064L0.515535 26.776C0.379069 26.921 0.272694 27.0912 0.202483 27.277C0.132272 27.4628 0.0996003 27.6606 0.106333 27.8589C0.113065 28.0573 0.15907 28.2523 0.24172 28.433C0.324371 28.6137 0.442049 28.7765 0.588035 28.912C0.734021 29.0475 0.905456 29.1532 1.09255 29.2229C1.27965 29.2926 1.47874 29.3251 1.67847 29.3184C1.87819 29.3117 2.07463 29.266 2.25658 29.1839C2.43852 29.1019 2.6024 28.985 2.73887 28.84L7.76553 23.512L9.98887 25.56C10.2759 25.7912 10.6343 25.9174 11.0039 25.9174C11.3735 25.9174 11.7318 25.7912 12.0189 25.56L14.5 23.416L16.9166 25.56C17.2 25.8008 17.5588 25.9365 17.9316 25.944C18.3061 25.945 18.6678 25.8082 18.9466 25.56L21.5566 23.256L22.4105 24.088L13.92 36.744C13.7144 37.0866 13.6451 37.493 13.7256 37.8837C13.806 38.2744 14.0305 38.6211 14.355 38.856C14.6067 39.011 14.8966 39.094 15.1928 39.096C15.4456 39.0923 15.6941 39.0296 15.918 38.9128C16.1419 38.7961 16.335 38.6286 16.4816 38.424L31.6583 15.56L34.4133 17.976C34.689 18.2245 35.048 18.3621 35.4203 18.3621C35.7926 18.3621 36.1515 18.2245 36.4272 17.976L38.86 15.848L41.2766 17.976C41.5555 18.2242 41.9171 18.361 42.2916 18.36C42.6645 18.3525 43.0233 18.2168 43.3066 17.976L46.0455 15.56L55.1966 29.4C55.4393 29.6625 55.7671 29.8321 56.1228 29.879C56.4785 29.9258 56.8396 29.8471 57.1428 29.6565C57.446 29.466 57.6721 29.1756 57.7817 28.8363C57.8912 28.4969 57.8773 28.1302 57.7422 27.8V27.656ZM17.8672 22.392L15.4505 20.264C15.1635 20.0328 14.8051 19.9066 14.4355 19.9066C14.0659 19.9066 13.7076 20.0328 13.4205 20.264L11.0039 22.392L9.7472 21.288L14.5 16.28L19.3333 21.08L17.8672 22.392ZM42.2916 14.824L39.8589 12.68C39.5832 12.4315 39.2242 12.2939 38.8519 12.2939C38.4796 12.2939 38.1207 12.4315 37.845 12.68L35.4444 14.824L33.3983 13L38.8922 4.728L44.3861 13L42.2916 14.824Z" fill="black"/>
</svg>
