<svg width="345" height="72" viewBox="0 0 345 72" fill="none" xmlns="http://www.w3.org/2000/svg">
<path d="M67.313 33H62.7394L58.237 17.3598H62.621L65.204 29.8009L68.0239 17.3598H71.7207L74.5881 29.7772L77.1711 17.3598H81.3892L76.863 33H72.4316L70.5832 25.4169L69.8723 21.6016H69.8249L69.1377 25.4169L67.313 33ZM97.4813 17.3598V33H93.4054V26.6965H87.4336V33H83.3577V17.3598H87.4336V23.5448H93.4054V17.3598H97.4813ZM105.021 33H100.946V17.3598H105.021V33ZM114.604 17.1228C116.089 17.1228 117.353 17.344 118.395 17.7864C119.454 18.2287 120.433 18.9475 121.334 19.9428L119.035 22.5969C118.514 21.807 117.898 21.2304 117.187 20.867C116.492 20.4879 115.654 20.2983 114.675 20.2983C113.853 20.2983 113.221 20.4405 112.779 20.7248C112.337 21.0092 112.115 21.3883 112.115 21.8623C112.115 22.2572 112.345 22.5811 112.803 22.8339C113.277 23.0709 114.074 23.292 115.196 23.4974C117.36 23.8924 118.901 24.469 119.817 25.2273C120.749 25.9856 121.215 27.052 121.215 28.4264C121.215 29.4217 120.931 30.2827 120.362 31.0094C119.793 31.7361 119.003 32.2891 117.992 32.6682C116.997 33.0474 115.868 33.237 114.604 33.237C112.834 33.237 111.397 33.0237 110.291 32.5971C109.185 32.1548 108.229 31.4834 107.423 30.5829L109.509 27.7392C110.125 28.5923 110.82 29.1926 111.594 29.5402C112.368 29.8878 113.3 30.0615 114.39 30.0615C115.259 30.0615 115.907 29.9431 116.334 29.7061C116.776 29.4533 116.997 29.0979 116.997 28.6397C116.997 28.2763 116.76 27.9841 116.286 27.7629C115.828 27.5259 115.054 27.3048 113.964 27.0994C112.621 26.8308 111.507 26.5149 110.623 26.1515C109.754 25.7723 109.074 25.2668 108.585 24.6349C108.111 24.0029 107.874 23.1972 107.874 22.2178C107.874 21.2383 108.134 20.3615 108.656 19.5874C109.193 18.8132 109.967 18.2129 110.978 17.7864C112.005 17.344 113.213 17.1228 114.604 17.1228ZM136.615 20.5115H131.52V33H127.444V20.5115H122.325V17.3598H136.615V20.5115ZM150.864 29.8483V33H138.944V17.3598H143.02V29.8483H150.864ZM157.276 33H153.2V17.3598H157.276V33ZM174.844 33H170.318L165.46 24.5401L164.275 22.1704H164.251L164.346 25.1088V33H160.744V17.3598H165.27L170.128 25.8197L171.313 28.1895H171.337L171.242 25.251V17.3598H174.844V33ZM192.337 24.5401V33H189.494L189.375 31.1516C188.475 32.5419 186.982 33.237 184.897 33.237C183.475 33.237 182.211 32.9289 181.105 32.3128C180.015 31.6809 179.162 30.7646 178.546 29.5639C177.93 28.3474 177.621 26.894 177.621 25.2036C177.621 23.529 177.937 22.0914 178.569 20.8907C179.201 19.6742 180.102 18.7422 181.271 18.0944C182.44 17.4467 183.822 17.1228 185.418 17.1228C187.203 17.1228 188.641 17.4388 189.731 18.0707C190.821 18.7027 191.682 19.7216 192.314 21.1277L188.546 22.6206C188.356 21.8465 188.001 21.2699 187.48 20.8907C186.958 20.5115 186.31 20.322 185.536 20.322C184.336 20.322 183.412 20.7327 182.764 21.5542C182.132 22.3757 181.816 23.5843 181.816 25.1799C181.816 28.4659 183.096 30.1089 185.655 30.1089C186.619 30.1089 187.393 29.8878 187.977 29.4454C188.578 29.0031 188.878 28.3632 188.878 27.5259V27.289H184.991V24.5401H192.337ZM220.319 33H216.717V25.8197L216.835 21.0092H216.788L212.925 33H209.631L205.769 21.0092H205.721L205.84 25.8197V33H202.214V17.3598H208.02L210.485 25.3221L211.361 28.6397H211.409L212.309 25.3458L214.75 17.3598H220.319V33ZM230.797 17.1228C232.377 17.1228 233.735 17.4467 234.873 18.0944C236.026 18.7264 236.911 19.6505 237.527 20.867C238.143 22.0677 238.451 23.5053 238.451 25.1799C238.451 26.8545 238.143 28.3 237.527 29.5165C236.911 30.7172 236.026 31.6414 234.873 32.2891C233.735 32.921 232.377 33.237 230.797 33.237C229.217 33.237 227.85 32.921 226.697 32.2891C225.544 31.6414 224.659 30.7172 224.043 29.5165C223.427 28.3 223.119 26.8545 223.119 25.1799C223.119 23.5053 223.427 22.0677 224.043 20.867C224.659 19.6505 225.544 18.7264 226.697 18.0944C227.85 17.4467 229.217 17.1228 230.797 17.1228ZM230.797 20.322C229.659 20.322 228.79 20.7327 228.19 21.5542C227.59 22.3757 227.29 23.5843 227.29 25.1799C227.29 26.7755 227.59 27.9841 228.19 28.8056C228.79 29.6271 229.659 30.0378 230.797 30.0378C231.934 30.0378 232.795 29.6271 233.38 28.8056C233.98 27.9841 234.28 26.7755 234.28 25.1799C234.28 23.5843 233.98 22.3757 233.38 21.5542C232.795 20.7327 231.934 20.322 230.797 20.322ZM254.952 26.6254C254.952 28.8214 254.367 30.4723 253.198 31.5782C252.029 32.684 250.283 33.237 247.961 33.237C245.654 33.237 243.909 32.684 242.724 31.5782C241.555 30.4723 240.97 28.8214 240.97 26.6254V17.3598H245.07V26.6965C245.07 27.8182 245.307 28.6555 245.781 29.2084C246.255 29.7614 246.981 30.0378 247.961 30.0378C249.92 30.0378 250.899 28.9241 250.899 26.6965V17.3598H254.952V26.6254ZM272.248 33H267.722L262.864 24.5401L261.679 22.1704H261.655L261.75 25.1088V33H258.148V17.3598H262.674L267.532 25.8197L268.717 28.1895H268.741L268.646 25.251V17.3598H272.248V33ZM288.865 20.5115H283.77V33H279.694V20.5115H274.575V17.3598H288.865V20.5115ZM298.046 29.4691H292.643L291.553 33H287.454L292.951 17.3598H297.833L303.307 33H299.113L298.046 29.4691ZM297.193 26.6965L296.056 22.9524L295.368 20.4879H295.321L294.681 22.9287L293.496 26.6965H297.193ZM309.202 33H305.126V17.3598H309.202V33ZM326.77 33H322.244L317.386 24.5401L316.201 22.1704H316.177L316.272 25.1088V33H312.67V17.3598H317.196L322.054 25.8197L323.239 28.1895H323.263L323.168 25.251V17.3598H326.77V33ZM336.349 17.1228C337.834 17.1228 339.098 17.344 340.14 17.7864C341.199 18.2287 342.178 18.9475 343.079 19.9428L340.78 22.5969C340.259 21.807 339.643 21.2304 338.932 20.867C338.237 20.4879 337.399 20.2983 336.42 20.2983C335.598 20.2983 334.966 20.4405 334.524 20.7248C334.082 21.0092 333.861 21.3883 333.861 21.8623C333.861 22.2572 334.09 22.5811 334.548 22.8339C335.022 23.0709 335.82 23.292 336.941 23.4974C339.106 23.8924 340.646 24.469 341.562 25.2273C342.494 25.9856 342.96 27.052 342.96 28.4264C342.96 29.4217 342.676 30.2827 342.107 31.0094C341.538 31.7361 340.749 32.2891 339.738 32.6682C338.742 33.0474 337.613 33.237 336.349 33.237C334.579 33.237 333.142 33.0237 332.036 32.5971C330.93 32.1548 329.974 31.4834 329.169 30.5829L331.254 27.7392C331.87 28.5923 332.565 29.1926 333.339 29.5402C334.113 29.8878 335.045 30.0615 336.136 30.0615C337.004 30.0615 337.652 29.9431 338.079 29.7061C338.521 29.4533 338.742 29.0979 338.742 28.6397C338.742 28.2763 338.505 27.9841 338.031 27.7629C337.573 27.5259 336.799 27.3048 335.709 27.0994C334.366 26.8308 333.252 26.5149 332.368 26.1515C331.499 25.7723 330.819 25.2668 330.33 24.6349C329.856 24.0029 329.619 23.1972 329.619 22.2178C329.619 21.2383 329.879 20.3615 330.401 19.5874C330.938 18.8132 331.712 18.2129 332.723 17.7864C333.75 17.344 334.959 17.1228 336.349 17.1228Z" fill="black"/>
<g clip-path="url(#clip0)">
<path d="M57.7422 36.656L40.1328 10.128C39.9822 9.93529 39.7892 9.77933 39.5686 9.67204C39.348 9.56475 39.1056 9.50897 38.86 9.50897C38.6143 9.50897 38.372 9.56475 38.1514 9.67204C37.9308 9.77933 37.7378 9.93529 37.5872 10.128L24.0539 30.496L15.515 22.016C15.2385 21.7578 14.879 21.6048 14.5 21.584C14.2938 21.5839 14.0899 21.6266 13.9012 21.7092C13.7126 21.7919 13.5434 21.9127 13.4044 22.064L0.515535 35.776C0.379069 35.921 0.272694 36.0912 0.202483 36.277C0.132272 36.4628 0.0996003 36.6606 0.106333 36.8589C0.113065 37.0573 0.15907 37.2523 0.24172 37.433C0.324371 37.6137 0.442049 37.7765 0.588035 37.912C0.734021 38.0475 0.905456 38.1532 1.09255 38.2229C1.27965 38.2926 1.47874 38.3251 1.67847 38.3184C1.87819 38.3117 2.07463 38.266 2.25658 38.1839C2.43852 38.1019 2.6024 37.985 2.73887 37.84L7.76553 32.512L9.98887 34.56C10.2759 34.7912 10.6343 34.9174 11.0039 34.9174C11.3735 34.9174 11.7318 34.7912 12.0189 34.56L14.5 32.416L16.9166 34.56C17.2 34.8008 17.5588 34.9365 17.9316 34.944C18.3062 34.945 18.6678 34.8082 18.9466 34.56L21.5566 32.256L22.4105 33.088L13.92 45.744C13.7144 46.0866 13.6451 46.493 13.7256 46.8837C13.806 47.2744 14.0305 47.6211 14.355 47.856C14.6067 48.011 14.8966 48.094 15.1928 48.096C15.4456 48.0923 15.6941 48.0296 15.918 47.9128C16.1419 47.7961 16.335 47.6286 16.4816 47.424L31.6583 24.56L34.4133 26.976C34.689 27.2245 35.048 27.3621 35.4203 27.3621C35.7926 27.3621 36.1515 27.2245 36.4272 26.976L38.86 24.848L41.2766 26.976C41.5555 27.2242 41.9171 27.361 42.2916 27.36C42.6645 27.3525 43.0233 27.2168 43.3066 26.976L46.0455 24.56L55.1966 38.4C55.4393 38.6625 55.7671 38.8321 56.1228 38.879C56.4785 38.9258 56.8396 38.8471 57.1428 38.6565C57.446 38.466 57.6721 38.1756 57.7817 37.8363C57.8913 37.4969 57.8773 37.1302 57.7422 36.8V36.656ZM17.8672 31.392L15.4505 29.264C15.1635 29.0328 14.8051 28.9066 14.4355 28.9066C14.0659 28.9066 13.7076 29.0328 13.4205 29.264L11.0039 31.392L9.7472 30.288L14.5 25.28L19.3333 30.08L17.8672 31.392ZM42.2916 23.824L39.8589 21.68C39.5832 21.4315 39.2242 21.2939 38.8519 21.2939C38.4796 21.2939 38.1207 21.4315 37.845 21.68L35.4444 23.824L33.3983 22L38.8922 13.728L44.3861 22L42.2916 23.824Z" fill="black"/>
</g>
<defs>
<clipPath id="clip0">
<rect width="58" height="72" fill="white"/>
</clipPath>
</defs>
</svg>
