<svg width="112" height="112" viewBox="0 0 112 112" fill="none" xmlns="http://www.w3.org/2000/svg">
<rect width="112" height="112" fill="#2D2D2D"/>
<path d="M19.972 80.96C20.724 80.96 21.364 81.072 21.892 81.296C22.428 81.52 22.924 81.884 23.38 82.388L22.216 83.732C21.952 83.332 21.64 83.04 21.28 82.856C20.928 82.664 20.504 82.568 20.008 82.568C19.592 82.568 19.272 82.64 19.048 82.784C18.824 82.928 18.712 83.12 18.712 83.36C18.712 83.56 18.828 83.724 19.06 83.852C19.3 83.972 19.704 84.084 20.272 84.188C21.368 84.388 22.148 84.68 22.612 85.064C23.084 85.448 23.32 85.988 23.32 86.684C23.32 87.188 23.176 87.624 22.888 87.992C22.6 88.36 22.2 88.64 21.688 88.832C21.184 89.024 20.612 89.12 19.972 89.12C19.076 89.12 18.348 89.012 17.788 88.796C17.228 88.572 16.744 88.232 16.336 87.776L17.392 86.336C17.704 86.768 18.056 87.072 18.448 87.248C18.84 87.424 19.312 87.512 19.864 87.512C20.304 87.512 20.632 87.452 20.848 87.332C21.072 87.204 21.184 87.024 21.184 86.792C21.184 86.608 21.064 86.46 20.824 86.348C20.592 86.228 20.2 86.116 19.648 86.012C18.968 85.876 18.404 85.716 17.956 85.532C17.516 85.34 17.172 85.084 16.924 84.764C16.684 84.444 16.564 84.036 16.564 83.54C16.564 83.044 16.696 82.6 16.96 82.208C17.232 81.816 17.624 81.512 18.136 81.296C18.656 81.072 19.268 80.96 19.972 80.96ZM30.9227 87.404V89H24.5987V81.08H30.7667V82.676H26.6627V84.284H29.9267V85.784H26.6627V87.404H30.9227ZM36.705 87.212H33.969L33.417 89H31.341L34.125 81.08H36.597L39.369 89H37.245L36.705 87.212ZM36.273 85.808L35.697 83.912L35.349 82.664H35.325L35.001 83.9L34.401 85.808H36.273ZM43.3509 80.96C44.1029 80.96 44.7429 81.072 45.2709 81.296C45.8069 81.52 46.3029 81.884 46.7589 82.388L45.5949 83.732C45.3309 83.332 45.0189 83.04 44.6589 82.856C44.3069 82.664 43.8829 82.568 43.3869 82.568C42.9709 82.568 42.6509 82.64 42.4269 82.784C42.2029 82.928 42.0909 83.12 42.0909 83.36C42.0909 83.56 42.2069 83.724 42.4389 83.852C42.6789 83.972 43.0829 84.084 43.6509 84.188C44.7469 84.388 45.5269 84.68 45.9909 85.064C46.4629 85.448 46.6989 85.988 46.6989 86.684C46.6989 87.188 46.5549 87.624 46.2669 87.992C45.9789 88.36 45.5789 88.64 45.0669 88.832C44.5629 89.024 43.9909 89.12 43.3509 89.12C42.4549 89.12 41.7269 89.012 41.1669 88.796C40.6069 88.572 40.1229 88.232 39.7149 87.776L40.7709 86.336C41.0829 86.768 41.4349 87.072 41.8269 87.248C42.2189 87.424 42.6909 87.512 43.2429 87.512C43.6829 87.512 44.0109 87.452 44.2269 87.332C44.4509 87.204 44.5629 87.024 44.5629 86.792C44.5629 86.608 44.4429 86.46 44.2029 86.348C43.9709 86.228 43.5789 86.116 43.0269 86.012C42.3469 85.876 41.7829 85.716 41.3349 85.532C40.8949 85.34 40.5509 85.084 40.3029 84.764C40.0629 84.444 39.9429 84.036 39.9429 83.54C39.9429 83.044 40.0749 82.6 40.3389 82.208C40.6109 81.816 41.0029 81.512 41.5149 81.296C42.0349 81.072 42.6469 80.96 43.3509 80.96ZM51.5296 80.96C52.3296 80.96 53.0176 81.124 53.5936 81.452C54.1776 81.772 54.6256 82.24 54.9376 82.856C55.2496 83.464 55.4056 84.192 55.4056 85.04C55.4056 85.888 55.2496 86.62 54.9376 87.236C54.6256 87.844 54.1776 88.312 53.5936 88.64C53.0176 88.96 52.3296 89.12 51.5296 89.12C50.7296 89.12 50.0376 88.96 49.4536 88.64C48.8696 88.312 48.4216 87.844 48.1096 87.236C47.7976 86.62 47.6416 85.888 47.6416 85.04C47.6416 84.192 47.7976 83.464 48.1096 82.856C48.4216 82.24 48.8696 81.772 49.4536 81.452C50.0376 81.124 50.7296 80.96 51.5296 80.96ZM51.5296 82.58C50.9536 82.58 50.5136 82.788 50.2096 83.204C49.9056 83.62 49.7536 84.232 49.7536 85.04C49.7536 85.848 49.9056 86.46 50.2096 86.876C50.5136 87.292 50.9536 87.5 51.5296 87.5C52.1056 87.5 52.5416 87.292 52.8376 86.876C53.1416 86.46 53.2936 85.848 53.2936 85.04C53.2936 84.232 53.1416 83.62 52.8376 83.204C52.5416 82.788 52.1056 82.58 51.5296 82.58ZM63.9652 89H61.6732L59.2132 84.716L58.6132 83.516H58.6012L58.6492 85.004V89H56.8252V81.08H59.1172L61.5772 85.364L62.1772 86.564H62.1892L62.1412 85.076V81.08H63.9652V89ZM72.7893 81.08C73.7733 81.08 74.5293 81.308 75.0573 81.764C75.5853 82.212 75.8493 82.86 75.8493 83.708C75.8493 84.516 75.5853 85.144 75.0573 85.592C74.5293 86.032 73.7733 86.252 72.7893 86.252H71.2173V89H69.1533V81.08H72.7893ZM72.4653 84.74C72.9133 84.74 73.2413 84.656 73.4493 84.488C73.6653 84.312 73.7733 84.044 73.7733 83.684C73.7733 83.332 73.6653 83.072 73.4493 82.904C73.2413 82.728 72.9133 82.64 72.4653 82.64H71.2173V84.74H72.4653ZM80.8964 87.212H78.1604L77.6084 89H75.5324L78.3164 81.08H80.7884L83.5604 89H81.4364L80.8964 87.212ZM80.4644 85.808L79.8884 83.912L79.5404 82.664H79.5164L79.1924 83.9L78.5924 85.808H80.4644ZM87.5423 80.96C88.2943 80.96 88.9343 81.072 89.4623 81.296C89.9983 81.52 90.4943 81.884 90.9503 82.388L89.7863 83.732C89.5223 83.332 89.2103 83.04 88.8503 82.856C88.4983 82.664 88.0743 82.568 87.5783 82.568C87.1623 82.568 86.8423 82.64 86.6183 82.784C86.3943 82.928 86.2823 83.12 86.2823 83.36C86.2823 83.56 86.3983 83.724 86.6303 83.852C86.8703 83.972 87.2743 84.084 87.8423 84.188C88.9383 84.388 89.7183 84.68 90.1823 85.064C90.6543 85.448 90.8903 85.988 90.8903 86.684C90.8903 87.188 90.7463 87.624 90.4583 87.992C90.1703 88.36 89.7703 88.64 89.2583 88.832C88.7543 89.024 88.1823 89.12 87.5423 89.12C86.6463 89.12 85.9183 89.012 85.3583 88.796C84.7983 88.572 84.3143 88.232 83.9063 87.776L84.9623 86.336C85.2743 86.768 85.6263 87.072 86.0183 87.248C86.4103 87.424 86.8823 87.512 87.4343 87.512C87.8743 87.512 88.2023 87.452 88.4183 87.332C88.6423 87.204 88.7543 87.024 88.7543 86.792C88.7543 86.608 88.6343 86.46 88.3943 86.348C88.1623 86.228 87.7703 86.116 87.2183 86.012C86.5383 85.876 85.9743 85.716 85.5263 85.532C85.0863 85.34 84.7423 85.084 84.4943 84.764C84.2543 84.444 84.1343 84.036 84.1343 83.54C84.1343 83.044 84.2663 82.6 84.5303 82.208C84.8023 81.816 85.1943 81.512 85.7063 81.296C86.2263 81.072 86.8383 80.96 87.5423 80.96ZM95.265 80.96C96.017 80.96 96.657 81.072 97.185 81.296C97.721 81.52 98.217 81.884 98.673 82.388L97.509 83.732C97.245 83.332 96.933 83.04 96.573 82.856C96.221 82.664 95.797 82.568 95.301 82.568C94.885 82.568 94.565 82.64 94.341 82.784C94.117 82.928 94.005 83.12 94.005 83.36C94.005 83.56 94.121 83.724 94.353 83.852C94.593 83.972 94.997 84.084 95.565 84.188C96.661 84.388 97.441 84.68 97.905 85.064C98.377 85.448 98.613 85.988 98.613 86.684C98.613 87.188 98.469 87.624 98.181 87.992C97.893 88.36 97.493 88.64 96.981 88.832C96.477 89.024 95.905 89.12 95.265 89.12C94.369 89.12 93.641 89.012 93.081 88.796C92.521 88.572 92.037 88.232 91.629 87.776L92.685 86.336C92.997 86.768 93.349 87.072 93.741 87.248C94.133 87.424 94.605 87.512 95.157 87.512C95.597 87.512 95.925 87.452 96.141 87.332C96.365 87.204 96.477 87.024 96.477 86.792C96.477 86.608 96.357 86.46 96.117 86.348C95.885 86.228 95.493 86.116 94.941 86.012C94.261 85.876 93.697 85.716 93.249 85.532C92.809 85.34 92.465 85.084 92.217 84.764C91.977 84.444 91.857 84.036 91.857 83.54C91.857 83.044 91.989 82.6 92.253 82.208C92.525 81.816 92.917 81.512 93.429 81.296C93.949 81.072 94.561 80.96 95.265 80.96Z" fill="white"/>
<g clip-path="url(#clip0)">
<path d="M84.7422 50.656L67.1328 24.128C66.9822 23.9353 66.7892 23.7793 66.5686 23.672C66.348 23.5647 66.1056 23.509 65.86 23.509C65.6144 23.509 65.372 23.5647 65.1514 23.672C64.9308 23.7793 64.7378 23.9353 64.5872 24.128L51.0539 44.496L42.515 36.016C42.2385 35.7578 41.879 35.6048 41.5 35.584C41.2938 35.5839 41.0899 35.6266 40.9013 35.7092C40.7126 35.7919 40.5434 35.9127 40.4045 36.064L27.5156 49.776C27.3791 49.921 27.2727 50.0912 27.2025 50.277C27.1323 50.4628 27.0996 50.6606 27.1064 50.8589C27.1131 51.0573 27.1591 51.2523 27.2418 51.433C27.3244 51.6137 27.4421 51.7765 27.5881 51.912C27.7341 52.0475 27.9055 52.1532 28.0926 52.2229C28.2797 52.2926 28.4788 52.3251 28.6785 52.3184C28.8782 52.3117 29.0747 52.266 29.2566 52.1839C29.4385 52.1019 29.6024 51.985 29.7389 51.84L34.7656 46.512L36.9889 48.56C37.2759 48.7912 37.6343 48.9174 38.0039 48.9174C38.3735 48.9174 38.7319 48.7912 39.0189 48.56L41.5 46.416L43.9167 48.56C44.2001 48.8008 44.5588 48.9365 44.9317 48.944C45.3062 48.945 45.6678 48.8082 45.9467 48.56L48.5567 46.256L49.4106 47.088L40.92 59.744C40.7145 60.0866 40.6451 60.493 40.7256 60.8837C40.8061 61.2744 41.0305 61.6211 41.355 61.856C41.6067 62.011 41.8966 62.094 42.1928 62.096C42.4457 62.0923 42.6941 62.0296 42.918 61.9128C43.1419 61.7961 43.335 61.6286 43.4817 61.424L58.6583 38.56L61.4133 40.976C61.689 41.2245 62.048 41.3621 62.4203 41.3621C62.7926 41.3621 63.1515 41.2245 63.4272 40.976L65.86 38.848L68.2767 40.976C68.5556 41.2242 68.9172 41.361 69.2917 41.36C69.6646 41.3525 70.0233 41.2168 70.3067 40.976L73.0456 38.56L82.1967 52.4C82.4393 52.6625 82.7671 52.8321 83.1229 52.879C83.4786 52.9258 83.8396 52.8471 84.1428 52.6565C84.446 52.466 84.6721 52.1756 84.7817 51.8363C84.8913 51.4969 84.8773 51.1302 84.7422 50.8V50.656ZM44.8672 45.392L42.4506 43.264C42.1635 43.0328 41.8052 42.9066 41.4356 42.9066C41.066 42.9066 40.7076 43.0328 40.4206 43.264L38.0039 45.392L36.7472 44.288L41.5 39.28L46.3333 44.08L44.8672 45.392ZM69.2917 37.824L66.8589 35.68C66.5832 35.4315 66.2242 35.2939 65.852 35.2939C65.4797 35.2939 65.1207 35.4315 64.845 35.68L62.4445 37.824L60.3983 36L65.8922 27.728L71.3861 36L69.2917 37.824Z" fill="white"/>
</g>
<defs>
<clipPath id="clip0">
<rect x="27" y="14" width="58" height="72" fill="white"/>
</clipPath>
</defs>
</svg>
