<svg width="41" height="51" viewBox="0 0 41 51" fill="none" xmlns="http://www.w3.org/2000/svg">
<path d="M33.0214 14.4269C32.8107 12.8613 32.1644 11.3856 31.1553 10.1664C30.1462 8.94712 28.8146 8.03295 27.311 7.5271C25.8073 7.02125 24.1915 6.94389 22.646 7.30373C21.1005 7.66358 19.6868 8.44631 18.5648 9.56351C17.1546 9.37004 15.7183 9.59098 14.4326 10.1992C13.1469 10.8073 12.0679 11.7762 11.3283 12.9866C10.8794 12.8729 10.418 12.8154 9.95479 12.8153C8.45637 12.8153 7.01932 13.4076 5.95978 14.462C4.90024 15.5164 4.30499 16.9464 4.30499 18.4375C4.30499 19.9286 4.90024 21.3587 5.95978 22.413C7.01932 23.4674 8.45637 24.0597 9.95479 24.0597H31.775C32.97 24.0564 34.123 23.6202 35.0185 22.8329C35.9141 22.0455 36.4911 20.9606 36.6417 19.7809C36.7923 18.6012 36.5063 17.4072 35.8371 16.422C35.1679 15.4367 34.1612 14.7276 33.005 14.4269H33.0214ZM31.775 22.44H9.95479C9.36667 22.4371 8.78638 22.3055 8.25507 22.0545C7.72377 21.8035 7.25445 21.4393 6.88038 20.9876C6.50632 20.536 6.23668 20.008 6.09057 19.4411C5.94446 18.8742 5.92546 18.2822 6.03491 17.7072C6.14437 17.1321 6.37961 16.5881 6.72394 16.1136C7.06828 15.6392 7.51328 15.2459 8.02741 14.9617C8.54154 14.6774 9.1122 14.5092 9.69895 14.469C10.2857 14.4288 10.8741 14.5175 11.4226 14.7288C11.6153 14.8035 11.8293 14.803 12.0217 14.7273C12.2141 14.6517 12.3706 14.5065 12.4599 14.3208C12.9192 13.3606 13.6433 12.5501 14.5478 11.9838C15.4523 11.4174 16.4999 11.1186 17.5685 11.1221C17.9472 11.123 18.3249 11.1613 18.696 11.2363C18.8355 11.2643 18.9799 11.2557 19.1151 11.2114C19.2502 11.167 19.3714 11.0884 19.4668 10.9834C20.3739 9.97812 21.5597 9.26261 22.8748 8.92703C24.1899 8.59144 25.5754 8.6508 26.8566 9.09761C28.1379 9.54443 29.2575 10.3587 30.0744 11.4378C30.8913 12.5169 31.3689 13.8125 31.447 15.1613C31.4609 15.3503 31.5406 15.5287 31.6722 15.6657C31.8039 15.8027 31.9794 15.8897 32.1686 15.912C33.0385 15.9639 33.8521 16.3576 34.4303 17.0065C35.0085 17.6553 35.304 18.5062 35.2518 19.3718C35.1996 20.2375 34.804 21.0471 34.1519 21.6225C33.4999 22.1979 32.6449 22.4919 31.775 22.44Z" fill="#2D2D2D"/>
<path d="M15.58 27.2789C15.58 26.8488 15.4518 26.4283 15.2117 26.0707C14.9716 25.7131 14.6303 25.4344 14.231 25.2698C13.8317 25.1052 13.3923 25.0621 12.9684 25.146C12.5445 25.2299 12.1551 25.4371 11.8495 25.7412C11.5439 26.0453 11.3357 26.4328 11.2514 26.8546C11.1671 27.2765 11.2104 27.7137 11.3758 28.1111C11.5412 28.5084 11.8213 28.8481 12.1806 29.087C12.54 29.326 12.9625 29.4535 13.3947 29.4535C13.974 29.4524 14.5292 29.223 14.9388 28.8154C15.3483 28.4078 15.5789 27.8553 15.58 27.2789ZM13.3947 27.8215C13.2869 27.8215 13.1814 27.7897 13.0918 27.7301C13.0021 27.6704 12.9322 27.5857 12.8909 27.4865C12.8496 27.3874 12.8388 27.2783 12.8599 27.173C12.8809 27.0678 12.9329 26.9711 13.0091 26.8952C13.0854 26.8193 13.1826 26.7676 13.2883 26.7467C13.3941 26.7257 13.5037 26.7365 13.6034 26.7776C13.703 26.8186 13.7882 26.8882 13.8481 26.9774C13.908 27.0667 13.94 27.1716 13.94 27.2789C13.94 27.3515 13.9254 27.4235 13.897 27.4904C13.8686 27.5573 13.8269 27.6179 13.7745 27.6685C13.7222 27.7191 13.6601 27.7587 13.592 27.785C13.524 27.8113 13.4513 27.8237 13.3783 27.8215H13.3947Z" fill="#2D2D2D"/>
<path d="M23.124 27.2789C23.124 26.8488 22.9959 26.4283 22.7557 26.0707C22.5156 25.7131 22.1743 25.4344 21.775 25.2698C21.3757 25.1052 20.9363 25.0621 20.5124 25.146C20.0885 25.2299 19.6991 25.4371 19.3935 25.7412C19.0879 26.0453 18.8797 26.4328 18.7954 26.8546C18.7111 27.2765 18.7544 27.7137 18.9198 28.1111C19.0852 28.5084 19.3653 28.8481 19.7246 29.087C20.084 29.326 20.5065 29.4535 20.9387 29.4535C21.518 29.4524 22.0732 29.223 22.4828 28.8154C22.8924 28.4078 23.1229 27.8553 23.124 27.2789ZM20.9387 27.8215C20.8309 27.8215 20.7254 27.7897 20.6358 27.7301C20.5461 27.6704 20.4762 27.5857 20.4349 27.4865C20.3937 27.3874 20.3829 27.2783 20.4039 27.173C20.4249 27.0678 20.4769 26.9711 20.5531 26.8952C20.6294 26.8193 20.7266 26.7676 20.8323 26.7467C20.9381 26.7257 21.0478 26.7365 21.1474 26.7776C21.247 26.8186 21.3322 26.8882 21.3921 26.9774C21.452 27.0667 21.484 27.1716 21.484 27.2789C21.484 27.4228 21.4266 27.5608 21.3243 27.6626C21.222 27.7644 21.0833 27.8215 20.9387 27.8215Z" fill="#2D2D2D"/>
<path d="M30.6885 27.2789C30.6885 26.8488 30.5604 26.4283 30.3202 26.0707C30.0801 25.7131 29.7388 25.4344 29.3395 25.2698C28.9402 25.1052 28.5008 25.0621 28.0769 25.146C27.653 25.2299 27.2636 25.4371 26.958 25.7412C26.6524 26.0453 26.4442 26.4328 26.3599 26.8546C26.2756 27.2765 26.3189 27.7137 26.4843 28.1111C26.6497 28.5084 26.9298 28.8481 27.2891 29.087C27.6485 29.326 28.071 29.4535 28.5032 29.4535C29.0825 29.4524 29.6377 29.223 30.0473 28.8154C30.4569 28.4078 30.6875 27.8553 30.6885 27.2789ZM28.5032 27.8215C28.3954 27.8215 28.29 27.7897 28.2003 27.7301C28.1106 27.6704 28.0407 27.5857 27.9994 27.4865C27.9582 27.3874 27.9474 27.2783 27.9684 27.173C27.9895 27.0678 28.0414 26.9711 28.1177 26.8952C28.1939 26.8193 28.2911 26.7676 28.3969 26.7467C28.5026 26.7257 28.6123 26.7365 28.7119 26.7776C28.8116 26.8186 28.8967 26.8882 28.9566 26.9774C29.0166 27.0667 29.0485 27.1716 29.0485 27.2789C29.0485 27.4228 28.9911 27.5608 28.8888 27.6626C28.7866 27.7644 28.6479 27.8215 28.5032 27.8215Z" fill="#2D2D2D"/>
<path d="M16.5968 29.376C16.1646 29.376 15.7421 29.5035 15.3827 29.7425C15.0233 29.9815 14.7432 30.3211 14.5778 30.7184C14.4124 31.1158 14.3692 31.5531 14.4535 31.9749C14.5378 32.3967 14.7459 32.7842 15.0516 33.0884C15.3572 33.3925 15.7466 33.5996 16.1705 33.6835C16.5944 33.7674 17.0338 33.7243 17.4331 33.5598C17.8324 33.3952 18.1737 33.1164 18.4138 32.7588C18.6539 32.4012 18.7821 31.9808 18.7821 31.5506C18.781 30.9742 18.5504 30.4217 18.1408 30.0141C17.7313 29.6065 17.176 29.3771 16.5968 29.376ZM16.5968 32.0933C16.4889 32.0933 16.3835 32.0615 16.2938 32.0018C16.2042 31.9422 16.1343 31.8575 16.093 31.7583C16.0517 31.6592 16.0409 31.55 16.062 31.4448C16.083 31.3395 16.135 31.2428 16.2112 31.1669C16.2875 31.0911 16.3846 31.0394 16.4904 31.0184C16.5962 30.9975 16.7058 31.0082 16.8055 31.0493C16.9051 31.0904 16.9903 31.1599 17.0502 31.2492C17.1101 31.3384 17.1421 31.4433 17.1421 31.5506C17.1399 31.6931 17.0815 31.8291 16.9795 31.9291C16.8775 32.0291 16.74 32.0851 16.5968 32.0851V32.0933Z" fill="#2D2D2D"/>
<path d="M24.1613 29.376C23.7291 29.376 23.3066 29.5035 22.9472 29.7425C22.5879 29.9815 22.3078 30.3211 22.1424 30.7184C21.977 31.1158 21.9337 31.5531 22.018 31.9749C22.1023 32.3967 22.3105 32.7842 22.6161 33.0884C22.9217 33.3925 23.3111 33.5996 23.735 33.6835C24.1589 33.7674 24.5983 33.7243 24.9976 33.5598C25.3969 33.3952 25.7382 33.1164 25.9783 32.7588C26.2184 32.4012 26.3466 31.9808 26.3466 31.5506C26.3455 30.9742 26.1149 30.4217 25.7054 30.0141C25.2958 29.6065 24.7406 29.3771 24.1613 29.376ZM24.1613 32.0933C24.0535 32.0933 23.948 32.0615 23.8584 32.0018C23.7687 31.9422 23.6988 31.8575 23.6575 31.7583C23.6163 31.6592 23.6055 31.55 23.6265 31.4448C23.6475 31.3395 23.6995 31.2428 23.7757 31.1669C23.852 31.0911 23.9492 31.0394 24.0549 31.0184C24.1607 30.9975 24.2704 31.0082 24.37 31.0493C24.4696 31.0904 24.5548 31.1599 24.6147 31.2492C24.6746 31.3384 24.7066 31.4433 24.7066 31.5506C24.7045 31.6931 24.6461 31.8291 24.544 31.9291C24.442 32.0291 24.3045 32.0851 24.1613 32.0851V32.0933Z" fill="#2D2D2D"/>
<path d="M31.7217 29.376C31.2895 29.376 30.867 29.5035 30.5076 29.7425C30.1482 29.9815 29.8681 30.3211 29.7027 30.7184C29.5373 31.1158 29.494 31.5531 29.5784 31.9749C29.6627 32.3967 29.8708 32.7842 30.1764 33.0884C30.4821 33.3925 30.8714 33.5996 31.2953 33.6835C31.7193 33.7674 32.1586 33.7243 32.558 33.5598C32.9573 33.3952 33.2986 33.1164 33.5387 32.7588C33.7788 32.4012 33.907 31.9808 33.907 31.5506C33.9059 30.9742 33.6753 30.4217 33.2657 30.0141C32.8561 29.6065 32.3009 29.3771 31.7217 29.376ZM31.7217 32.0933C31.6138 32.0933 31.5084 32.0615 31.4187 32.0018C31.329 31.9422 31.2592 31.8575 31.2179 31.7583C31.1766 31.6592 31.1658 31.55 31.1869 31.4448C31.2079 31.3395 31.2598 31.2428 31.3361 31.1669C31.4124 31.0911 31.5095 31.0394 31.6153 31.0184C31.7211 30.9975 31.8307 31.0082 31.9304 31.0493C32.03 31.0904 32.1152 31.1599 32.1751 31.2492C32.235 31.3384 32.267 31.4433 32.267 31.5506C32.2648 31.6931 32.2064 31.8291 32.1044 31.9291C32.0024 32.0291 31.8649 32.0851 31.7217 32.0851V32.0933Z" fill="#2D2D2D"/>
</svg>
